<svg width="25" height="24" viewBox="0 0 25 24" fill="none" xmlns="http://www.w3.org/2000/svg">
<g id="check-square">
<path id="Icon" d="M8.25 12L11.25 15L17.25 9M8.55 21H16.95C18.6302 21 19.4702 21 20.112 20.673C20.6765 20.3854 21.1354 19.9265 21.423 19.362C21.75 18.7202 21.75 17.8802 21.75 16.2V7.8C21.75 6.11984 21.75 5.27976 21.423 4.63803C21.1354 4.07354 20.6765 3.6146 20.112 3.32698C19.4702 3 18.6302 3 16.95 3H8.55C6.86984 3 6.02976 3 5.38803 3.32698C4.82354 3.6146 4.3646 4.07354 4.07698 4.63803C3.75 5.27976 3.75 6.11984 3.75 7.8V16.2C3.75 17.8802 3.75 18.7202 4.07698 19.362C4.3646 19.9265 4.82354 20.3854 5.38803 20.673C6.02976 21 6.86984 21 8.55 21Z" stroke="#667085" stroke-width="2" stroke-linecap="round" stroke-linejoin="round"/>
</g>
</svg>
