<svg width="25" height="24" viewBox="0 0 25 24" fill="none" xmlns="http://www.w3.org/2000/svg">
<g id="edit-04">
<path id="Icon" d="M21.25 18L20.2499 19.094C19.7195 19.6741 19.0001 20 18.2501 20C17.5001 20 16.7808 19.6741 16.2504 19.094C15.7192 18.5151 15 18.1901 14.2502 18.1901C13.5004 18.1901 12.7811 18.5151 12.25 19.094M3.25 20H4.92454C5.41372 20 5.65832 20 5.88849 19.9447C6.09256 19.8957 6.28765 19.8149 6.4666 19.7053C6.66843 19.5816 6.84138 19.4086 7.18729 19.0627L19.75 6.49998C20.5785 5.67156 20.5785 4.32841 19.75 3.49998C18.9216 2.67156 17.5785 2.67156 16.75 3.49998L4.18726 16.0627C3.84136 16.4086 3.6684 16.5816 3.54472 16.7834C3.43506 16.9624 3.35425 17.1574 3.30526 17.3615C3.25 17.5917 3.25 17.8363 3.25 18.3255V20Z" stroke="#667085" stroke-width="2" stroke-linecap="round" stroke-linejoin="round"/>
</g>
</svg>
