<svg width="25" height="24" viewBox="0 0 25 24" fill="none" xmlns="http://www.w3.org/2000/svg">
<g id="text-input">
<path id="Icon" d="M13.25 7H5.45C4.3299 7 3.76984 7 3.34202 7.21799C2.96569 7.40973 2.65973 7.71569 2.46799 8.09202C2.25 8.51984 2.25 9.0799 2.25 10.2V13.8C2.25 14.9201 2.25 15.4802 2.46799 15.908C2.65973 16.2843 2.96569 16.5903 3.34202 16.782C3.76984 17 4.32989 17 5.45 17H13.25M17.25 7H19.05C20.1701 7 20.7302 7 21.158 7.21799C21.5343 7.40973 21.8403 7.71569 22.032 8.09202C22.25 8.51984 22.25 9.0799 22.25 10.2V13.8C22.25 14.9201 22.25 15.4802 22.032 15.908C21.8403 16.2843 21.5343 16.5903 21.158 16.782C20.7302 17 20.1701 17 19.05 17H17.25M17.25 21L17.25 3M19.75 3.00001L14.75 3M19.75 21L14.75 21" stroke="#667085" stroke-width="2" stroke-linecap="round" stroke-linejoin="round"/>
</g>
</svg>
