<svg width="25" height="24" viewBox="0 0 25 24" fill="none" xmlns="http://www.w3.org/2000/svg">
<g id="user-02">
<g id="Icon">
<path d="M12.2499 15C9.07977 15 6.26065 16.5306 4.46585 18.906C4.07956 19.4172 3.88641 19.6728 3.89273 20.0183C3.89761 20.2852 4.06521 20.6219 4.27522 20.7867C4.54704 21 4.92372 21 5.67708 21H18.8226C19.576 21 19.9527 21 20.2245 20.7867C20.4345 20.6219 20.6021 20.2852 20.607 20.0183C20.6133 19.6728 20.4201 19.4172 20.0339 18.906C18.2391 16.5306 15.4199 15 12.2499 15Z" stroke="#667085" stroke-width="2" stroke-linecap="round" stroke-linejoin="round"/>
<path d="M12.2499 12C14.7351 12 16.7499 9.98528 16.7499 7.5C16.7499 5.01472 14.7351 3 12.2499 3C9.76457 3 7.74985 5.01472 7.74985 7.5C7.74985 9.98528 9.76457 12 12.2499 12Z" stroke="#667085" stroke-width="2" stroke-linecap="round" stroke-linejoin="round"/>
</g>
</g>
</svg>
